<?xml version="1.0" encoding="utf-8"?>
<svg xmlns="http://www.w3.org/2000/svg" xmlns:xlink="http://www.w3.org/1999/xlink" version= "1.1" width="2000px" height="2000px" viewBox="290 610 1000 1000">
<rect x="0" y="0" fill="none"/>
<g id="layer1">
<g style="fill:white; fill-opacity:1.0; stroke-linejoin: miter">
<path d="M757.93695,1124.5884L757.93695,1124.5884C763.739,1134.0476,769.8585,1143.9952,773.73474,1153.9569L773.73474,1153.9569C777.63873,1163.99,779.2096,1173.8779,780.7048,1183.1893C781.1426,1185.9158,779.28723,1188.481,776.5607,1188.9188C773.8342,1189.3567,771.26904,1187.5012,770.83124,1184.7748L770.83124,1184.7748C769.3156,1175.3363,767.8762,1166.4774,764.4154,1157.5831L764.4154,1157.5831C760.9268,1148.6176,755.32904,1139.4623,749.4128,1129.8169C747.96893,1127.463,748.7067,1124.3844,751.0606,1122.9406C753.4145,1121.4967,756.4931,1122.2345,757.93695,1124.5884 Z"/>
</g>
<g style="fill:white; fill-opacity:1.0; stroke-linejoin: miter">
<path d="M749.77246,1122.0884L749.77246,1122.0884C753.6182,1117.2872,758.0794,1111.6365,765.13226,1107.6931L765.13226,1107.6931C771.67664,1104.034,780.2264,1101.9437,787.5811,1101.9437L787.5811,1101.9437C788.00006,1101.9437,788.44165,1101.9509,788.8551,1101.965L788.85535,1101.9651C796.73755,1102.2323,802.8599,1105.0428,808.09,1107.3999C808.2905,1107.4902,808.485,1107.5939,808.6719,1107.7098L808.7056,1107.731L808.7126,1107.7354L808.67883,1107.7142C812.288,1109.9537,816.2088,1112.3807,818.9391,1114.4484L818.9391,1114.4484C821.8575,1116.6584,823.4403,1118.4677,824.819,1120.0405C826.63916,1122.1171,826.43134,1125.2761,824.35474,1127.0963C822.27814,1128.9165,819.11914,1128.7086,817.29895,1126.6321L817.29895,1126.6321C816.04236,1125.1985,814.99255,1124.0035,812.902,1122.4203L812.902,1122.4203C810.62946,1120.6993,807.1714,1118.5475,803.4064,1116.2113L803.3726,1116.1902L803.36566,1116.1858L803.98126,1116.5168C798.6341,1114.107,794.1811,1112.1512,788.5165,1111.9592L788.5167,1111.9594C788.2186,1111.9492,787.8895,1111.9437,787.5811,1111.9437L787.5811,1111.9437C781.8349,1111.9437,774.9801,1113.6439,770.0124,1116.4214L770.0124,1116.4214C764.90015,1119.2797,761.5461,1123.3854,757.5773,1128.3401C755.8509,1130.4954,752.70416,1130.843,750.54895,1129.1166C748.39374,1127.3901,748.0461,1124.2437,749.77246,1122.0884 Z"/>
</g>
<g style="fill:white; fill-opacity:1.0; stroke-linejoin: miter">
<path d="M795.7624,1184.7687L795.7624,1184.7687C797.13153,1172.1395,798.5635,1158.6544,802.342,1148.1257L802.342,1148.1257C806.208,1137.3531,812.44006,1129.8634,818.08734,1123.0247C819.84564,1120.8954,822.9972,1120.5947,825.12646,1122.353C827.25574,1124.1113,827.55646,1127.2628,825.79816,1129.3921L825.79816,1129.3921C820.086,1136.3093,814.9579,1142.5767,811.7542,1151.5037L811.7542,1151.5037C808.46265,1160.6755,807.11505,1172.8328,805.70416,1185.8466C805.40656,1188.5919,802.93976,1190.576,800.1944,1190.2784C797.44904,1189.9808,795.4648,1187.514,795.7624,1184.7687 Z"/>
</g>
<g style="fill:white; fill-opacity:1.0; stroke-linejoin: miter">
<path d="M795.50696,1186.4603L795.4917,1186.4333L795.49005,1186.4304L795.5053,1186.4574C791.50116,1179.4412,788.9542,1175.5377,787.46747,1174.8972L787.46716,1174.8971C787.47095,1174.8987,787.6275,1174.964,787.90015,1174.964L787.90015,1174.964C787.93365,1174.964,787.9667,1174.963,787.9995,1174.961L788.0001,1174.961C788.25836,1174.9457,788.40436,1174.8782,788.4052,1174.8778L788.40564,1174.8777C786.82416,1175.6266,784.1979,1180.0568,780.2026,1187.7278C778.92694,1190.1769,775.9075,1191.1283,773.4583,1189.8527C771.00916,1188.577,770.0578,1185.5575,771.33344,1183.1084L771.33344,1183.1084C774.31256,1177.3884,778.6609,1168.4274,784.1261,1165.8396L784.1265,1165.8395C785.0858,1165.3854,786.1863,1165.0513,787.40576,1164.9786L787.4064,1164.9786C787.5707,1164.9689,787.73517,1164.964,787.90015,1164.964L787.90015,1164.964C789.20056,1164.964,790.3898,1165.2676,791.4241,1165.7133L791.42377,1165.7131C796.8275,1168.0409,801.2379,1176.3271,804.1905,1181.5009L804.20575,1181.5278L804.2074,1181.5308C805.56085,1183.9021,804.7262,1186.9558,802.3279,1188.3246C799.92957,1189.6934,796.8757,1188.8586,795.50696,1186.4603 Z"/>
</g>
<g style="fill:white; fill-opacity:1.0; stroke-linejoin: miter">
<path d="M804.81976,1110.6542L804.81976,1110.6542L804.82086,1110.5615L804.82086,1110.5615C805.00104,1095.3744,805.25616,1079.5061,820.0955,1055.3585L820.0955,1055.3585C834.5602,1031.8206,863.6114,999.2509,899.7174,988.9203L899.7174,988.9203C909.1911,986.20966,919.0349,985.06445,928.94836,985.06445L928.94836,985.06445C956.9769,985.06445,986.06024,994.2289,1010.0534,1003.8608L1010.0534,1003.8608C1042.6583,1016.9498,1066.846,1031.3192,1090.7391,1045.5067C1093.1135,1046.9166,1093.8954,1049.9844,1092.4855,1052.3588C1091.0756,1054.7332,1088.0078,1055.515,1085.6334,1054.1051L1085.6334,1054.1051C1061.7422,1039.9187,1038.142,1025.9125,1006.32794,1013.1409L1006.32794,1013.1409C982.68427,1003.6493,955.03467,995.06445,928.94836,995.06445L928.94836,995.06445C919.7958,995.06445,910.8987,996.12244,902.46826,998.53455L902.46826,998.53455C869.8532,1007.86633,842.5193,1037.9688,828.6154,1060.5941L828.6154,1060.5941C815.1452,1082.5138,814.991,1096.2743,814.8201,1110.6802L814.8201,1110.6802L814.81903,1110.7728C814.78625,1113.534,812.52136,1115.7458,809.76013,1115.7131C806.9989,1115.6804,804.787,1113.4154,804.81976,1110.6542 Z"/>
</g>
<g style="fill:white; fill-opacity:1.0; stroke-linejoin: miter">
<path d="M821.12524,1140.4398L821.12524,1140.4398C830.0713,1155.5936,838.60266,1169.9708,854.7826,1182.4362L854.7826,1182.4362C871.0649,1194.9803,895.2295,1205.665,923.0331,1207.7545L923.0331,1207.7545C926.293,1207.9995,929.60815,1208.1265,932.9459,1208.1265L932.9459,1208.1265C958.14764,1208.1265,984.48663,1200.9238,1003.28064,1183.415L1003.28064,1183.415C1020.17786,1167.6735,1031.4413,1143.3076,1041.7312,1120.8976L1041.7312,1120.8976C1044.5245,1114.814,1047.2512,1108.8746,1049.9717,1103.4155L1049.9717,1103.4155C1062.6664,1077.9408,1075.1505,1063.0563,1087.3765,1048.4702C1089.0647,1046.4562,1092.0659,1046.192,1094.08,1047.8802C1096.094,1049.5685,1096.3582,1052.5697,1094.6699,1054.5837L1094.6699,1054.5837C1082.5355,1069.0605,1070.66,1083.2374,1058.4895,1107.6602L1058.4895,1107.6602C1055.8485,1112.96,1053.1886,1118.7518,1050.3799,1124.8688L1050.3799,1124.8688C1040.2921,1146.8386,1028.3046,1173.1093,1009.7677,1190.3784L1009.7677,1190.3784C988.6913,1210.0135,959.7336,1217.6433,932.9459,1217.6433L932.9459,1217.6433C929.36835,1217.6433,925.81384,1217.5071,922.31995,1217.2445L922.31995,1217.2445C892.5879,1215.0101,866.66766,1203.6062,848.9745,1189.975L848.9745,1189.975C831.17896,1176.265,821.84784,1160.3842,812.92993,1145.278C811.59393,1143.0149,812.34546,1140.0973,814.6085,1138.7612C816.8716,1137.4252,819.78925,1138.1768,821.12524,1140.4398 Z"/>
</g>
<g style="fill:white; fill-opacity:1.0; stroke-linejoin: miter">
<path d="M761.50684,1107.8726L761.50726,1107.8759L761.4917,1107.7627L761.4913,1107.7594C759.04364,1089.8701,756.66486,1072.712,739.85736,1049.8468L739.85736,1049.8468C722.63275,1026.4142,691.0482,998.03326,653.73303,994.11505L653.733,994.11505C650.5555,993.7814,647.31915,993.62286,644.0347,993.62286L644.0347,993.62286C608.5341,993.62286,568.8696,1012.068,542.2042,1025.2386L542.2042,1025.2386C513.3459,1039.4924,501.32776,1046.6907,489.27438,1053.9071C487.0196,1055.2571,484.0974,1054.5236,482.74747,1052.2688C481.39752,1050.014,482.13104,1047.0918,484.38583,1045.7418L484.38583,1045.7418C496.59665,1038.4312,508.84302,1031.1022,537.98975,1016.70593L537.98975,1016.70593C564.3731,1003.6746,605.976,984.106,644.0347,984.106L644.0347,984.106C647.6257,984.106,651.1929,984.27924,654.72687,984.6503L654.7268,984.6503C695.9261,988.9764,729.62524,1019.85864,747.52545,1044.2103L747.52545,1044.2103C765.77014,1069.0306,768.4106,1088.1268,770.9202,1106.4694L770.9198,1106.4661L770.93536,1106.5792C771.29205,1109.1863,769.4701,1111.5858,766.86633,1111.942C764.2626,1112.2982,761.8631,1110.4763,761.50684,1107.8726 Z"/>
</g>
<g style="fill:white; fill-opacity:1.0; stroke-linejoin: miter">
<path d="M815.1676,1107.8726L815.1672,1107.8759L815.18274,1107.7627L815.18317,1107.7594C817.6308,1089.8701,820.0096,1072.712,836.8171,1049.8468L836.8171,1049.8468C854.0417,1026.4142,885.6262,998.03326,922.9414,994.11505L922.94147,994.11505C926.11896,993.7814,929.3553,993.62286,932.6397,993.62286L932.6397,993.62286C968.1403,993.62286,1007.8048,1012.068,1034.4702,1025.2386L1034.4702,1025.2386C1063.3286,1039.4924,1075.3467,1046.6907,1087.4,1053.9071C1089.6548,1055.2571,1092.577,1054.5236,1093.927,1052.2688C1095.2769,1050.014,1094.5435,1047.0918,1092.2886,1045.7418L1092.2886,1045.7418C1080.0778,1038.4312,1067.8314,1031.1022,1038.6847,1016.70593L1038.6847,1016.70593C1012.30133,1003.6746,970.6984,984.106,932.6397,984.106L932.6397,984.106C929.04877,984.106,925.48157,984.27924,921.9476,984.6503L921.94763,984.6503C880.74835,988.9764,847.0492,1019.85864,829.149,1044.2103L829.149,1044.2103C810.9043,1069.0306,808.26385,1088.1268,805.7542,1106.4694L805.75464,1106.4661L805.7391,1106.5792C805.3824,1109.1863,807.20435,1111.5858,809.8081,1111.942C812.41187,1112.2982,814.81134,1110.4763,815.1676,1107.8726 Z"/>
</g>
<g style="fill:white; fill-opacity:1.0; stroke-linejoin: miter">
<path d="M493.80884,1052.8436L493.80884,1052.8436C504.16824,1066.9944,514.6599,1081.3224,527.16266,1104.6913L527.16266,1104.6913C529.71344,1109.459,532.36237,1114.6316,535.0684,1119.916L535.06836,1119.9159C538.0069,1125.6542,541.01984,1131.5381,544.18,1137.4447L544.18,1137.4447C552.38293,1152.7767,561.27203,1167.6626,571.1648,1178.4784L571.1648,1178.4784C588.2084,1197.112,608.74176,1204.1542,626.67474,1207.4377L626.6747,1207.4377C633.56903,1208.7001,639.9153,1209.3765,646.13446,1209.3765L646.13446,1209.3765C656.0553,1209.3765,665.8581,1207.6553,677.1956,1203.6115L677.1956,1203.6115C695.8353,1196.963,718.3053,1184.1595,732.17694,1172.723L732.17694,1172.723C745.7492,1161.5333,751.05774,1151.6876,756.6498,1141.2977C757.89526,1138.9836,760.7809,1138.1173,763.095,1139.3628C765.40906,1140.6083,766.2754,1143.4939,765.0299,1145.808L765.0299,1145.808C759.29565,1156.462,753.2777,1167.6606,738.2309,1180.066L738.2309,1180.066C723.48444,1192.2238,700.04156,1205.5668,680.39276,1212.5751L680.39276,1212.5751C668.15265,1216.9408,657.26843,1218.8933,646.13446,1218.8933L646.13446,1218.8933C639.21344,1218.8933,632.2835,1218.1396,624.9607,1216.7988L624.96063,1216.7988C605.8981,1213.3083,583.10626,1205.6346,564.14246,1184.9015L564.14246,1184.9015C553.3928,1173.1489,544.04047,1157.3577,535.78864,1141.9342L535.78864,1141.9342C532.58435,1135.9451,529.5276,1129.9753,526.59766,1124.2538L526.5976,1124.2537C523.88074,1118.9481,521.27625,1113.8628,518.7713,1109.1808L518.7713,1109.1808C506.59668,1086.4252,496.43253,1072.5385,486.12982,1058.4652C484.57745,1056.3447,485.038,1053.3673,487.1585,1051.815C489.27902,1050.2626,492.25647,1050.7231,493.80884,1052.8436 Z"/>
</g>
<g style="fill:white; fill-opacity:1.0; stroke-linejoin: miter">
<path d="M1082.8656,1052.8436L1082.8656,1052.8436C1072.5062,1066.9944,1062.0145,1081.3224,1049.5117,1104.6913L1049.5117,1104.6913C1046.9609,1109.459,1044.312,1114.6316,1041.606,1119.916L1041.6061,1119.9159C1038.6675,1125.6542,1035.6545,1131.5381,1032.4944,1137.4447L1032.4944,1137.4447C1024.2915,1152.7767,1015.4024,1167.6626,1005.50964,1178.4784L1005.50964,1178.4784C988.46606,1197.112,967.9327,1204.1542,949.9997,1207.4377L949.99976,1207.4377C943.1054,1208.7001,936.75916,1209.3765,930.54,1209.3765L930.54,1209.3765C920.61914,1209.3765,910.81635,1207.6553,899.4788,1203.6115L899.4788,1203.6115C880.8391,1196.963,858.36914,1184.1595,844.4975,1172.723L844.4975,1172.723C830.92523,1161.5333,825.6167,1151.6876,820.02466,1141.2977C818.7792,1138.9836,815.89355,1138.1173,813.57947,1139.3628C811.2654,1140.6083,810.39905,1143.4939,811.64453,1145.808L811.64453,1145.808C817.3788,1156.462,823.3967,1167.6606,838.44354,1180.066L838.44354,1180.066C853.19,1192.2238,876.6329,1205.5668,896.2817,1212.5751L896.2817,1212.5751C908.5218,1216.9408,919.406,1218.8933,930.54,1218.8933L930.54,1218.8933C937.461,1218.8933,944.3909,1218.1396,951.71375,1216.7988L951.7138,1216.7988C970.77637,1213.3083,993.5682,1205.6346,1012.532,1184.9015L1012.532,1184.9015C1023.2816,1173.1489,1032.634,1157.3577,1040.8857,1141.9342L1040.8857,1141.9342C1044.0901,1135.9451,1047.1469,1129.9753,1050.0768,1124.2538L1050.0769,1124.2537C1052.7937,1118.9481,1055.3982,1113.8628,1057.9031,1109.1808L1057.9031,1109.1808C1070.0778,1086.4252,1080.242,1072.5385,1090.5447,1058.4652C1092.0969,1056.3447,1091.6365,1053.3673,1089.5159,1051.815C1087.3954,1050.2626,1084.418,1050.7231,1082.8656,1052.8436 Z"/>
</g>
<g style="fill:white; fill-opacity:1.0; stroke-linejoin: miter">
<path d="M674.71735,991.546L674.71735,991.546C672.5117,977.3026,670.2618,962.7272,673.68335,937.0594L673.68335,937.0594C677.0638,911.7004,686.0396,875.02057,703.57336,846.0262L703.57336,846.0262C716.6623,824.38196,734.3985,807.24994,748.49384,793.6093L748.49384,793.60925C753.3411,788.91833,757.7226,784.67664,761.41956,780.7601L761.41956,780.7601C775.7169,765.6134,779.92676,755.17725,784.30865,744.3572C785.2951,741.9213,788.0694,740.7464,790.50525,741.73285C792.9411,742.7193,794.116,745.4936,793.1296,747.92944L793.1296,747.92944C788.5547,759.2261,783.8079,770.9061,768.3402,787.29266L768.3402,787.29266C764.46655,791.3964,759.91644,795.7987,755.112,800.4481L755.112,800.44806C740.919,814.1832,724.0744,830.5162,711.7169,850.95087L711.7169,850.95087C695.1184,878.3988,686.40485,913.65,683.1167,938.31683L683.1167,938.31683C679.8698,962.6741,681.97375,976.21594,684.12213,990.0897C684.5243,992.68677,682.74493,995.1181,680.1479,995.52026C677.55084,995.9224,675.1195,994.14307,674.71735,991.546 Z"/>
</g>
<g style="fill:white; fill-opacity:1.0; stroke-linejoin: miter">
<path d="M901.9571,991.546L901.9571,991.546C904.1627,977.3026,906.41266,962.7272,902.9911,937.0594L902.9911,937.0594C899.61066,911.7004,890.6348,875.02057,873.1011,846.0262L873.1011,846.0262C860.01215,824.38196,842.27594,807.24994,828.1806,793.6093L828.1806,793.60925C823.3333,788.91833,818.95184,784.67664,815.2549,780.7601L815.2549,780.7601C800.9575,765.6134,796.7477,755.17725,792.3658,744.3572C791.37933,741.9213,788.60504,740.7464,786.1692,741.73285C783.73334,742.7193,782.5584,745.4936,783.54486,747.92944L783.54486,747.92944C788.11975,759.2261,792.8665,770.9061,808.3342,787.29266L808.3342,787.29266C812.2079,791.3964,816.758,795.7987,821.56244,800.4481L821.56244,800.44806C835.75543,814.1832,852.60004,830.5162,864.9575,850.95087L864.9575,850.95087C881.556,878.3988,890.2696,913.65,893.55774,938.31683L893.55774,938.31683C896.8046,962.6741,894.7007,976.21594,892.5523,990.0897C892.15015,992.68677,893.9295,995.1181,896.52655,995.52026C899.1236,995.9224,901.55493,994.14307,901.9571,991.546 Z"/>
</g>
<g style="fill:white; fill-opacity:1.0; stroke-linejoin: miter">
<path d="M708.4193,1349.3118L708.40717,1349.3287L708.41394,1349.3192L708.41394,1349.3192L708.4207,1349.3097L708.43286,1349.2927C713.4675,1342.2822,718.4457,1335.3496,722.9301,1328.6494L722.92993,1328.6498C723.1061,1328.3866,723.45435,1327.8645,723.6321,1327.5979L723.63196,1327.598C723.8415,1327.2837,724.12524,1326.8583,724.3379,1326.5405L724.338,1326.5403C728.494,1320.3308,733.13776,1313.8035,742.8214,1308.0647L742.82135,1308.0648C753.1579,1301.9391,769.2609,1296.7518,784.5383,1291.8026C787.0384,1290.9927,789.7216,1292.3628,790.53156,1294.8628C791.3415,1297.3628,789.9714,1300.0461,787.4713,1300.8561L787.4713,1300.8561C771.7629,1305.945,756.8805,1310.7954,747.6733,1316.2518L747.6732,1316.252C739.84644,1320.8903,736.16455,1325.9802,732.2468,1331.8337L732.24695,1331.8335C732.02014,1332.1724,731.78015,1332.5325,731.5504,1332.8771L731.5503,1332.8772C731.32117,1333.2208,731.0738,1333.5919,730.8391,1333.9425L730.8389,1333.9429C726.25256,1340.7954,721.17737,1347.8616,716.16284,1354.844L716.175,1354.827L716.1682,1354.8365L716.1682,1354.8365L716.16144,1354.8461C714.61633,1356.9976,711.6432,1357.4854,709.5086,1355.9524C707.374,1354.4194,706.88635,1351.4463,708.4193,1349.3118 Z"/>
</g>
<g style="fill:white; fill-opacity:1.0; stroke-linejoin: miter">
<path d="M868.2551,1349.3118L868.2673,1349.3287L868.2605,1349.3192L868.2605,1349.3192L868.2537,1349.3097L868.2416,1349.2927C863.2069,1342.2822,858.22876,1335.3496,853.7443,1328.6494L853.7445,1328.6498C853.56836,1328.3866,853.2201,1327.8645,853.04236,1327.5979L853.0425,1327.598C852.83295,1327.2837,852.5492,1326.8583,852.33655,1326.5405L852.3364,1326.5403C848.1804,1320.3308,843.5367,1313.8035,833.853,1308.0647L833.8531,1308.0648C823.51654,1301.9391,807.4135,1296.7518,792.1361,1291.8026C789.63605,1290.9927,786.9528,1292.3628,786.1429,1294.8628C785.33295,1297.3628,786.70306,1300.0461,789.2031,1300.8561L789.2031,1300.8561C804.91156,1305.945,819.79395,1310.7954,829.00116,1316.2518L829.0012,1316.252C836.828,1320.8903,840.5099,1325.9802,844.4276,1331.8337L844.4275,1331.8335C844.6543,1332.1724,844.8943,1332.5325,845.124,1332.8771L845.12415,1332.8772C845.3533,1333.2208,845.60065,1333.5919,845.8353,1333.9425L845.8355,1333.9429C850.4219,1340.7954,855.4971,1347.8616,860.5116,1354.844L860.49945,1354.827L860.5062,1354.8365L860.5062,1354.8365L860.513,1354.8461C862.0581,1356.9976,865.03125,1357.4854,867.16583,1355.9524C869.3004,1354.4194,869.7881,1351.4463,868.2551,1349.3118 Z"/>
</g>
<g style="fill:white; fill-opacity:1.0; stroke-linejoin: miter">
<path d="M713.3341,1350.44L713.3341,1350.44C724.88794,1353.0533,737.6452,1355.8727,747.5851,1362.7051L747.5851,1362.7051C753.13745,1366.5216,757.67444,1371.4954,761.54565,1375.7137L761.5457,1375.7137C764.7546,1379.2106,767.42957,1382.1033,770.1371,1384.1633L770.1371,1384.1633C775.9842,1388.6122,782.4356,1389.4653,790.3063,1390.3969C792.9161,1390.7057,794.7814,1393.0719,794.4725,1395.6816C794.1636,1398.2914,791.79755,1400.1566,789.18774,1399.8478L789.18774,1399.8478C781.5874,1398.9482,772.56665,1397.9703,764.3744,1391.737L764.3744,1391.737C760.8581,1389.0615,757.5882,1385.4767,754.5339,1382.1483L754.53394,1382.1483C750.54065,1377.7969,746.70886,1373.6511,742.1942,1370.5479L742.1942,1370.5479C734.0492,1364.9492,723.2429,1362.4384,711.2345,1359.7222C708.67126,1359.1423,707.06335,1356.5945,707.6431,1354.0312C708.2229,1351.468,710.7709,1349.8601,713.3341,1350.44 Z"/>
</g>
<g style="fill:white; fill-opacity:1.0; stroke-linejoin: miter">
<path d="M863.34033,1350.44L863.34033,1350.44C851.7865,1353.0533,839.02924,1355.8727,829.08936,1362.7051L829.08936,1362.7051C823.537,1366.5216,819.0,1371.4954,815.1288,1375.7137L815.1287,1375.7137C811.91986,1379.2106,809.2449,1382.1033,806.53735,1384.1633L806.53735,1384.1633C800.69025,1388.6122,794.23883,1389.4653,786.36816,1390.3969C783.75836,1390.7057,781.89307,1393.0719,782.20197,1395.6816C782.51086,1398.2914,784.8769,1400.1566,787.4867,1399.8478L787.4867,1399.8478C795.08704,1398.9482,804.1078,1397.9703,812.30005,1391.737L812.30005,1391.737C815.81635,1389.0615,819.08624,1385.4767,822.14056,1382.1483L822.1405,1382.1483C826.1338,1377.7969,829.9656,1373.6511,834.4802,1370.5479L834.4802,1370.5479C842.62524,1364.9492,853.4315,1362.4384,865.43994,1359.7222C868.0032,1359.1423,869.6111,1356.5945,869.0313,1354.0312C868.45154,1351.468,865.90356,1349.8601,863.34033,1350.44 Z"/>
</g>
<g style="fill:white; fill-opacity:1.0; stroke-linejoin: miter">
<path d="M750.9846,1168.819L750.9846,1168.819C753.4946,1180.1952,755.8161,1190.457,760.87714,1198.3427L760.87714,1198.3427C764.529,1204.0327,769.73596,1208.6769,774.72107,1213.0862L774.72107,1213.0862C776.5579,1214.7108,778.4065,1216.344,780.0102,1217.9224L780.0102,1217.9224C786.05023,1223.8672,788.4686,1228.8739,790.6616,1233.402C791.8071,1235.7672,790.81836,1238.6132,788.4531,1239.7587C786.0879,1240.9042,783.24194,1239.9154,782.09644,1237.5502L782.09644,1237.5502C780.0238,1233.2705,778.1778,1229.4722,773.3344,1224.7051L773.3344,1224.7051C771.9455,1223.338,770.3039,1221.8844,768.416,1220.2146L768.416,1220.2146C763.5792,1215.9365,757.3469,1210.4618,752.868,1203.483L752.868,1203.483C746.7144,1193.895,744.10846,1181.8251,741.6913,1170.8695C741.12506,1168.3032,742.74646,1165.7638,745.31274,1165.1976C747.879,1164.6315,750.4184,1166.2527,750.9846,1168.819 Z"/>
</g>
<g style="fill:white; fill-opacity:1.0; stroke-linejoin: miter">
<path d="M825.6898,1168.819L825.6898,1168.819C823.1798,1180.1952,820.85834,1190.457,815.7973,1198.3427L815.7973,1198.3427C812.14545,1204.0327,806.9385,1208.6769,801.95337,1213.0862L801.95337,1213.0862C800.1165,1214.7108,798.26794,1216.344,796.66425,1217.9224L796.66425,1217.9224C790.6242,1223.8672,788.2058,1228.8739,786.0128,1233.402C784.8673,1235.7672,785.8561,1238.6132,788.2213,1239.7587C790.58655,1240.9042,793.4325,1239.9154,794.578,1237.5502L794.578,1237.5502C796.65063,1233.2705,798.49664,1229.4722,803.34,1224.7051L803.34,1224.7051C804.72894,1223.338,806.37054,1221.8844,808.2584,1220.2146L808.2584,1220.2146C813.0952,1215.9365,819.3275,1210.4618,823.80646,1203.483L823.80646,1203.483C829.96,1193.895,832.566,1181.8251,834.98315,1170.8695C835.5494,1168.3032,833.928,1165.7638,831.3617,1165.1976C828.7954,1164.6315,826.25604,1166.2527,825.6898,1168.819 Z"/>
</g>
<g style="fill:white; fill-opacity:1.0; stroke-linejoin: miter">
<path d="M743.33966,1172.9443C740.85156,1172.9443,738.7584,1174.8779,738.5958,1177.395L738.5849,1177.563L738.58484,1177.5642C737.486,1194.5798,736.2812,1212.7026,738.5559,1223.8141L738.5559,1223.8151C739.9503,1230.6252,742.6232,1234.8545,744.7422,1238.229L744.7422,1238.2291C746.33044,1240.7585,747.3661,1242.4648,747.9374,1244.595C748.5554,1246.8999,748.69214,1249.8845,748.8425,1253.9071L748.8425,1253.907C749.00745,1258.3217,749.19055,1263.7382,750.6031,1269.0059C750.8002,1269.741,751.0218,1270.4768,751.27234,1271.213C754.8167,1281.6272,763.6958,1290.4272,771.4024,1298.1858C772.3325,1299.1222,773.55536,1299.5908,774.7785,1299.5908C775.99097,1299.5908,777.2037,1299.1304,778.13184,1298.2084C779.99634,1296.3562,780.00635,1293.3435,778.1543,1291.479C769.97815,1283.2477,762.974,1276.0575,760.2817,1268.1467C760.1032,1267.6223,759.94116,1267.0857,759.79517,1266.541C758.70593,1262.4792,758.5242,1258.1387,758.35266,1253.5518L758.35266,1253.5516C758.21484,1249.8635,758.08374,1245.689,757.1294,1242.1301C756.13403,1238.4182,754.3074,1235.5659,752.8018,1233.1682L752.8019,1233.1692C750.7865,1229.9587,748.9109,1226.9442,747.87933,1221.9055L747.87933,1221.9054C745.92633,1212.3655,746.9407,1195.8489,748.0818,1178.1787L748.0818,1178.1797L748.09265,1178.0107L748.0928,1178.0096C748.2621,1175.3871,746.27344,1173.1238,743.6509,1172.9543C743.5465,1172.9476,743.44275,1172.9443,743.33966,1172.9443 Z"/>
</g>
<g style="fill:white; fill-opacity:1.0; stroke-linejoin: miter">
<path d="M833.3348,1172.9443C833.2317,1172.9443,833.1279,1172.9476,833.02356,1172.9543C830.401,1173.1238,828.41235,1175.3871,828.58167,1178.0096L828.5818,1178.0107L828.59265,1178.1787L828.59265,1178.1797C829.73376,1195.8489,830.7481,1212.3655,828.7951,1221.9054L828.7951,1221.9055C827.76355,1226.9442,825.88794,1229.9587,823.87256,1233.1682L823.8726,1233.1692C822.36707,1235.5659,820.5404,1238.4182,819.54504,1242.1301C818.5907,1245.689,818.4596,1249.8635,818.3218,1253.5516L818.3218,1253.5518C818.15027,1258.1387,817.9685,1262.4792,816.8793,1266.541C816.7333,1267.0857,816.5712,1267.6223,816.39276,1268.1467C813.70044,1276.0575,806.6963,1283.2477,798.52014,1291.479C796.6681,1293.3435,796.6781,1296.3562,798.5426,1298.2084C799.47076,1299.1304,800.6835,1299.5908,801.89594,1299.5908C803.1191,1299.5908,804.3419,1299.1222,805.27203,1298.1858C812.97864,1290.4272,821.8577,1281.6272,825.4021,1271.213C825.65265,1270.4768,825.87427,1269.741,826.07135,1269.0059C827.4839,1263.7382,827.667,1258.3217,827.8319,1253.907L827.8319,1253.9071C827.9823,1249.8845,828.119,1246.8999,828.73706,1244.595C829.30835,1242.4648,830.344,1240.7585,831.93225,1238.2291L831.93225,1238.229C834.0512,1234.8545,836.7241,1230.6252,838.1185,1223.8141L838.1185,1223.8151L838.1185,1223.814L838.1185,1223.815C840.39325,1212.7025,839.1884,1194.5797,838.0896,1177.5642L838.08954,1177.563L838.0786,1177.395C837.916,1174.8779,835.8229,1172.9443,833.3348,1172.9443 Z"/>
</g>
<g style="fill:white; fill-opacity:1.0; stroke-linejoin: miter">
<path d="M576.5834,1194.0519L576.5834,1194.0519C558.1299,1230.9414,540.0501,1267.1517,533.1745,1312.9597L533.1745,1312.9597C526.2695,1358.9636,530.62103,1414.8334,535.05774,1471.4647C535.263,1474.0847,533.30554,1476.375,530.68555,1476.5803C528.06555,1476.7856,525.7752,1474.8281,525.56995,1472.2081L525.56995,1472.2081C521.15924,1415.9086,516.6635,1358.8475,523.7631,1311.5471L523.7631,1311.5471C530.89215,1264.0507,549.6691,1226.5826,568.072,1189.7943C569.24774,1187.444,572.1062,1186.4917,574.45654,1187.6675C576.8069,1188.8433,577.7591,1191.7015,576.5834,1194.0519 Z"/>
</g>
<g style="fill:white; fill-opacity:1.0; stroke-linejoin: miter">
<path d="M1000.09106,1194.0519L1000.09106,1194.0519C1018.54456,1230.9414,1036.6243,1267.1517,1043.5,1312.9597L1043.5,1312.9597C1050.405,1358.9636,1046.0535,1414.8334,1041.6167,1471.4647C1041.4114,1474.0847,1043.3689,1476.375,1045.9889,1476.5803C1048.6089,1476.7856,1050.8992,1474.8281,1051.1045,1472.2081L1051.1045,1472.2081C1055.5151,1415.9086,1060.011,1358.8475,1052.9114,1311.5471L1052.9114,1311.5471C1045.7822,1264.0507,1027.0054,1226.5826,1008.6024,1189.7943C1007.4267,1187.444,1004.56824,1186.4917,1002.2179,1187.6675C999.86755,1188.8433,998.91534,1191.7015,1000.09106,1194.0519 Z"/>
</g>
<g style="fill:white; fill-opacity:1.0; stroke-linejoin: miter">
<path d="M530.7307,1471.2192L530.7307,1471.2192C540.90045,1457.7148,551.7893,1443.128,570.08276,1434.4678L570.08276,1434.4678C582.49243,1428.5929,598.13635,1425.5476,612.7321,1422.6781L612.7321,1422.6781C619.4376,1421.3597,625.9407,1420.0807,632.07825,1418.5785L632.07825,1418.5785C651.6298,1413.7931,667.38074,1406.7456,682.95886,1396.4246L682.95886,1396.4246C698.6652,1386.0186,714.2191,1372.2804,730.08887,1358.2518C732.05786,1356.5112,735.06506,1356.6965,736.8056,1358.6655C738.54614,1360.6345,738.36096,1363.6416,736.39197,1365.3822L736.39197,1365.3822C720.6405,1379.3063,704.57623,1393.5183,688.2151,1404.3582L688.2151,1404.3582C671.7265,1415.2825,654.9645,1422.7745,634.3408,1427.8224L634.3408,1427.8224C627.9567,1429.3849,621.226,1430.7073,614.56793,1432.0162L614.56793,1432.0162C599.63666,1434.9517,585.2751,1437.8049,574.1549,1443.0693L574.1549,1443.0693C558.2788,1450.5852,548.66516,1463.2244,538.333,1476.9443C536.7521,1479.0436,533.7687,1479.4639,531.6694,1477.8829C529.57007,1476.302,529.1498,1473.3185,530.7307,1471.2192 Z"/>
</g>
<g style="fill:white; fill-opacity:1.0; stroke-linejoin: miter">
<path d="M1045.9437,1471.2192L1045.9437,1471.2192C1035.7739,1457.7148,1024.8851,1443.128,1006.5917,1434.4678L1006.5917,1434.4678C994.182,1428.5929,978.5381,1425.5476,963.9423,1422.6781L963.9423,1422.6781C957.2368,1421.3597,950.73376,1420.0807,944.5962,1418.5785L944.5962,1418.5785C925.0446,1413.7931,909.2937,1406.7456,893.7156,1396.4246L893.7156,1396.4246C878.0092,1386.0186,862.4553,1372.2804,846.5856,1358.2518C844.6166,1356.5112,841.6094,1356.6965,839.86884,1358.6655C838.1283,1360.6345,838.3135,1363.6416,840.2825,1365.3822L840.2825,1365.3822C856.03394,1379.3063,872.0982,1393.5183,888.45935,1404.3582L888.45935,1404.3582C904.94794,1415.2825,921.70996,1422.7745,942.3336,1427.8224L942.3336,1427.8224C948.7177,1429.3849,955.4484,1430.7073,962.1065,1432.0162L962.1065,1432.0162C977.0378,1434.9517,991.39935,1437.8049,1002.51953,1443.0693L1002.51953,1443.0693C1018.3956,1450.5852,1028.0093,1463.2244,1038.3414,1476.9443C1039.9224,1479.0436,1042.9058,1479.4639,1045.0051,1477.8829C1047.1044,1476.302,1047.5247,1473.3185,1045.9437,1471.2192 Z"/>
</g>
<g style="fill:white; fill-opacity:1.0; stroke-linejoin: miter">
<path d="M790.97723,973.1096L790.97723,973.1096L790.7452,1105.4034C790.7427,1106.8225,789.5903,1107.971,788.17114,1107.9685C786.752,1107.9661,785.60364,1106.8135,785.60614,1105.3944L785.60614,1105.3944L785.8382,973.1006C785.8407,971.68146,786.9931,970.5331,788.41223,970.5356C789.83136,970.5381,790.97974,971.6905,790.97723,973.1096 Z"/>
</g>
<g style="fill:white; fill-opacity:1.0; stroke-linejoin: miter">
<path d="M785.6973,973.1096L785.6973,973.1096L785.9294,1105.4034C785.9319,1106.8225,787.0843,1107.971,788.5034,1107.9685C789.92255,1107.9661,791.0709,1106.8135,791.0684,1105.3944L791.0684,1105.3944L790.83636,973.1006C790.83386,971.68146,789.68146,970.5331,788.2623,970.5356C786.8432,970.5381,785.6948,971.6905,785.6973,973.1096 Z"/>
</g>
<g style="fill:white; fill-opacity:1.0; stroke-linejoin: miter">
<path d="M792.47833,1102.1057L792.47833,1102.1057C793.73737,1087.2,795.0117,1072.0248,799.5878,1056.1265L799.5878,1056.1265C804.1526,1040.2676,811.98444,1023.7624,819.69305,1007.5024C820.30096,1006.2201,821.8334,1005.6734,823.11566,1006.2813C824.39795,1006.8892,824.94464,1008.42163,824.33673,1009.7039L824.33673,1009.7039C816.5839,1026.0571,808.95325,1042.1681,804.5264,1057.5479L804.5264,1057.5479C800.1104,1072.8901,798.86285,1087.5773,797.5992,1102.5383C797.47974,1103.9524,796.2366,1105.0018,794.8225,1104.8824C793.40845,1104.7631,792.3589,1103.5198,792.47833,1102.1057 Z"/>
</g>
<g style="fill:white; fill-opacity:1.0; stroke-linejoin: miter">
<path d="M784.1962,1102.1057L784.1962,1102.1057C782.9372,1087.2,781.66284,1072.0248,777.08673,1056.1265L777.08673,1056.1265C772.522,1040.2676,764.6901,1023.7624,756.9815,1007.5024C756.3736,1006.2201,754.8412,1005.6734,753.5589,1006.2813C752.2766,1006.8892,751.7299,1008.42163,752.3378,1009.7039L752.3378,1009.7039C760.09064,1026.0571,767.7213,1042.1681,772.14813,1057.5479L772.14813,1057.5479C776.56415,1072.8901,777.8117,1087.5773,779.0754,1102.5383C779.1948,1103.9524,780.438,1105.0018,781.85205,1104.8824C783.2661,1104.7631,784.3157,1103.5198,784.1962,1102.1057 Z"/>
</g>
<g style="fill:white; fill-opacity:1.0; stroke-linejoin: miter">
<path d="M704.7238,1057.0323C703.9733,1057.0323,703.2294,1057.3596,702.7217,1057.9895C701.8312,1059.0944,702.0049,1060.712,703.10974,1061.6025C713.0479,1069.6128,722.7905,1077.473,731.53467,1087.4752C740.2644,1097.4612,748.0458,1109.6337,755.9509,1122.0242L756.0394,1122.1628C756.52954,1122.931,757.35986,1123.3507,758.2082,1123.3507C758.6811,1123.3507,759.15955,1123.2203,759.58777,1122.9471C760.78406,1122.1838,761.1352,1120.5953,760.37195,1119.3989L760.37195,1119.3999L760.2834,1119.2601L760.2834,1119.26C752.425,1106.9429,744.4352,1094.4238,735.4037,1084.0928C726.31995,1073.702,716.2298,1065.5769,706.33484,1057.6014C705.85974,1057.2185,705.2899,1057.0323,704.7238,1057.0323 Z"/>
</g>
<g style="fill:white; fill-opacity:1.0; stroke-linejoin: miter">
<path d="M871.95074,1057.0323C871.38464,1057.0323,870.8148,1057.2185,870.3397,1057.6014C860.44476,1065.5769,850.3546,1073.702,841.2709,1084.0928C832.2394,1094.4238,824.2496,1106.9429,816.3912,1119.26L816.3912,1119.2601L816.3027,1119.3988L816.3027,1119.3998L816.3026,1119.3989L816.3026,1119.3999C815.53937,1120.5953,815.8905,1122.1838,817.0868,1122.9471C817.515,1123.2203,817.99347,1123.3507,818.4664,1123.3507C819.3147,1123.3507,820.145,1122.931,820.63513,1122.1628L820.72363,1122.0242C828.6288,1109.6337,836.41016,1097.4612,845.1399,1087.4752C853.88403,1077.473,863.62665,1069.6128,873.5648,1061.6025C874.6697,1060.712,874.8434,1059.0944,873.9529,1057.9895C873.4452,1057.3596,872.70123,1057.0323,871.95074,1057.0323 Z"/>
</g>
<g style="fill:white; fill-opacity:1.0; stroke-linejoin: miter">
<path d="M820.5871,1124.7432L820.5871,1124.7432C834.1661,1113.1477,847.99927,1101.3224,862.8284,1093.2039L862.8284,1093.2039C877.68317,1085.0713,893.45575,1080.701,908.8945,1076.4127C910.26184,1076.033,911.67816,1076.8336,912.058,1078.2009C912.4378,1079.5682,911.6372,1080.9846,910.26984,1081.3644L910.26984,1081.3644C894.7459,1085.6764,879.548,1089.9093,865.2963,1097.7117L865.2963,1097.7117C851.01886,1105.5282,837.59595,1116.9768,823.92426,1128.6514C822.8451,1129.5729,821.2232,1129.4451,820.30164,1128.3658C819.38007,1127.2866,819.50793,1125.6647,820.5871,1124.7432 Z"/>
</g>
<g style="fill:white; fill-opacity:1.0; stroke-linejoin: miter">
<path d="M756.08746,1124.7432L756.08746,1124.7432C742.5085,1113.1477,728.6753,1101.3224,713.8461,1093.2039L713.8461,1093.2039C698.9914,1085.0713,683.2188,1080.701,667.7801,1076.4127C666.4127,1076.033,664.9964,1076.8336,664.6166,1078.2009C664.23676,1079.5682,665.03735,1080.9846,666.4047,1081.3644L666.4047,1081.3644C681.92865,1085.6764,697.1266,1089.9093,711.37823,1097.7117L711.37823,1097.7117C725.6557,1105.5282,739.0786,1116.9768,752.7503,1128.6514C753.82947,1129.5729,755.45135,1129.4451,756.3729,1128.3658C757.2945,1127.2866,757.1666,1125.6647,756.08746,1124.7432 Z"/>
</g>
<g style="fill:white; fill-opacity:1.0; stroke-linejoin: miter">
<path d="M690.7595,1114.6879C673.38916,1114.6879,654.4334,1117.1846,635.6914,1119.6489C634.28436,1119.834,633.2937,1121.1245,633.47876,1122.5315C633.64874,1123.825,634.75305,1124.7665,636.0232,1124.7665C636.1348,1124.7665,636.2477,1124.7592,636.3613,1124.7443C655.18414,1122.2693,673.7892,1119.8269,690.7594,1119.8269C690.76154,1119.8269,690.7636,1119.8269,690.76575,1119.8269C694.0627,1119.827,697.2916,1119.9196,700.44037,1120.1215L700.4398,1120.1224L700.4415,1120.1216C719.7217,1121.3579,736.3394,1126.7063,753.26776,1132.1788L753.2684,1132.179L753.39233,1132.219C753.6548,1132.3038,753.921,1132.3442,754.1828,1132.3442C755.26715,1132.3442,756.27545,1131.652,756.6271,1130.5642C757.0636,1129.214,756.3228,1127.7654,754.97253,1127.3289L754.9719,1127.3287L754.84827,1127.2888L754.8485,1127.2898L754.8479,1127.2887L754.84814,1127.2897C737.9809,1121.8359,720.79034,1116.2797,700.7894,1114.9943L700.7891,1114.9952L700.7879,1114.9941L700.76917,1114.9929C697.4966,1114.7831,694.15894,1114.688,690.76587,1114.6879C690.76373,1114.6879,690.7616,1114.6879,690.7595,1114.6879 Z"/>
</g>
<g style="fill:white; fill-opacity:1.0; stroke-linejoin: miter">
<path d="M885.91504,1114.6879C885.91296,1114.6879,885.9108,1114.6879,885.9087,1114.6879C882.5156,1114.688,879.178,1114.7831,875.9054,1114.9929L875.88666,1114.9941L875.8871,1114.9951C855.88513,1116.2793,838.6939,1121.8359,821.82605,1127.2888L821.8263,1127.2898L821.70264,1127.3287L821.702,1127.3289C820.35175,1127.7654,819.61096,1129.214,820.0475,1130.5642C820.3991,1131.652,821.4074,1132.3442,822.49176,1132.3442C822.75354,1132.3442,823.0198,1132.3038,823.2822,1132.219L823.4062,1132.179L823.4068,1132.1788C840.33514,1126.7063,856.9529,1121.3579,876.23303,1120.1216L876.2517,1120.1202L876.2529,1120.1201L876.2552,1120.1211C879.3973,1119.9192,882.6192,1119.827,885.9088,1119.8269C885.91095,1119.8269,885.913,1119.8269,885.91516,1119.8269C902.8854,1119.8269,921.4904,1122.2693,940.31323,1124.7443C940.4269,1124.7592,940.53973,1124.7665,940.65137,1124.7665C941.9215,1124.7665,943.0258,1123.825,943.1958,1122.5315C943.38086,1121.1245,942.3902,1119.834,940.98315,1119.6489C922.24115,1117.1846,903.2854,1114.6879,885.91504,1114.6879 Z"/>
</g>
<g style="fill:white; fill-opacity:1.0; stroke-linejoin: miter">
<path d="M820.0531,1129.4147L820.0698,1129.419L820.0768,1129.4208L820.0768,1129.4208L820.08374,1129.4226L820.067,1129.4183C836.38574,1133.5956,852.9243,1137.8256,866.2294,1143.0195L866.2294,1143.0195C879.60254,1148.2401,889.6757,1154.4172,899.5717,1160.4802C900.7818,1161.2216,901.16174,1162.8036,900.4204,1164.0137C899.6791,1165.2238,898.0971,1165.6036,896.887,1164.8623L896.887,1164.8623C886.9827,1158.7942,877.25977,1152.8424,864.3606,1147.8069L864.3606,1147.8069C851.40643,1142.7499,835.2032,1138.5975,818.7926,1134.3969L818.7759,1134.3926L818.7689,1134.3907L818.7689,1134.3907L818.76196,1134.3889C817.4039,1134.0413,816.5747,1132.6415,816.92664,1131.2667C817.27856,1129.892,818.6783,1129.0627,820.0531,1129.4147 Z"/>
</g>
<g style="fill:white; fill-opacity:1.0; stroke-linejoin: miter">
<path d="M756.62146,1129.4147L756.60474,1129.419L756.5978,1129.4208L756.5978,1129.4208L756.5908,1129.4226L756.60754,1129.4183C740.2888,1133.5956,723.75024,1137.8256,710.4452,1143.0195L710.4452,1143.0195C697.072,1148.2401,686.99884,1154.4172,677.10284,1160.4802C675.89276,1161.2216,675.5128,1162.8036,676.25415,1164.0137C676.9955,1165.2238,678.57745,1165.6036,679.78754,1164.8623L679.78754,1164.8623C689.69183,1158.7942,699.4148,1152.8424,712.31396,1147.8069L712.31396,1147.8069C725.2681,1142.7499,741.4714,1138.5975,757.88196,1134.3969L757.8987,1134.3926L757.90564,1134.3907L757.90564,1134.3907L757.9126,1134.3889C759.2707,1134.0413,760.09985,1132.6415,759.7479,1131.2667C759.396,1129.892,757.9963,1129.0627,756.62146,1129.4147 Z"/>
</g>
<g style="fill:white; fill-opacity:1.0; stroke-linejoin: miter">
<path d="M714.2829,954.2897L714.2829,954.2897C713.536,938.1126,712.7514,921.4798,715.71234,907.4853L715.71234,907.4853C718.6923,893.40063,725.4306,882.11224,731.9159,871.20996C732.6414,869.9903,734.21826,869.5897,735.4379,870.31525C736.6576,871.0408,737.05817,872.6176,736.33264,873.8373L736.33264,873.8373C729.79846,884.8217,723.51874,895.41656,720.7402,908.549L720.7402,908.549C717.9429,921.77014,718.6608,937.68396,719.41656,954.0526C719.482,955.4702,718.38586,956.67255,716.96826,956.738C715.55066,956.8034,714.3483,955.7073,714.2829,954.2897 Z"/>
</g>
<g style="fill:white; fill-opacity:1.0; stroke-linejoin: miter">
<path d="M862.39154,954.2897L862.39154,954.2897C863.1384,938.1126,863.92303,921.4798,860.9621,907.4853L860.9621,907.4853C857.9821,893.40063,851.24384,882.11224,844.75854,871.20996C844.033,869.9903,842.4562,869.5897,841.2365,870.31525C840.01685,871.0408,839.6163,872.6176,840.3418,873.8373L840.3418,873.8373C846.876,884.8217,853.1557,895.41656,855.93427,908.549L855.93427,908.549C858.73157,921.77014,858.0136,937.68396,857.2579,954.0526C857.19244,955.4702,858.2886,956.67255,859.7062,956.738C861.1238,956.8034,862.3261,955.7073,862.39154,954.2897 Z"/>
</g>
<g style="fill:white; fill-opacity:1.0; stroke-linejoin: miter">
<path d="M749.23035,844.1072L749.22217,844.122L749.2242,844.11835L749.2242,844.11835L749.2262,844.1147L749.2344,844.09985C751.80914,839.4906,754.4475,834.76416,757.45575,830.355L757.45575,830.355C760.46796,825.94006,763.8234,821.88324,767.09406,817.9261C767.99817,816.8322,769.6178,816.6784,770.7117,817.5825C771.80554,818.48663,771.95935,820.10626,771.05524,821.20013L771.05524,821.20013C767.75995,825.18713,764.5585,829.0629,761.70087,833.25134L761.70087,833.25134C758.8439,837.4388,756.3161,841.9603,753.72095,846.6061L753.7291,846.59125L753.7271,846.5949L753.7271,846.5949L753.7251,846.5986C753.02484,847.85236,751.4595,848.29565,750.2205,847.6036C748.98157,846.9115,748.53827,845.3461,749.23035,844.1072 Z"/>
</g>
<g style="fill:white; fill-opacity:1.0; stroke-linejoin: miter">
<path d="M827.44415,844.1072L827.45233,844.122L827.4503,844.11835L827.4503,844.11835L827.4483,844.1147L827.4401,844.09985C824.86536,839.4906,822.227,834.76416,819.21875,830.355L819.21875,830.355C816.20654,825.94006,812.8511,821.88324,809.58044,817.9261C808.67633,816.8322,807.0567,816.6784,805.9628,817.5825C804.86896,818.48663,804.71515,820.10626,805.61926,821.20013L805.61926,821.20013C808.91455,825.18713,812.116,829.0629,814.97363,833.25134L814.97363,833.25134C817.8306,837.4388,820.3584,841.9603,822.95355,846.6061L822.9454,846.59125L822.9474,846.5949L822.9474,846.5949L822.9494,846.5986C823.64966,847.85236,825.215,848.29565,826.454,847.6036C827.69293,846.9115,828.1362,845.3461,827.44415,844.1072 Z"/>
</g>
<g style="fill:white; fill-opacity:1.0; stroke-linejoin: miter">
<path d="M1043.3971,1083.0923L1043.3643,1083.1351L1043.3602,1083.1403L1043.3602,1083.1403L1043.3562,1083.1454L1043.389,1083.1025C1037.0388,1091.5441,1030.7828,1099.866,1025.4752,1108.8744L1025.4752,1108.8745C1023.49725,1112.2316,1021.6424,1115.6984,1019.7473,1119.2411L1019.7473,1119.2411C1017.8324,1122.8208,1015.88605,1126.4607,1013.762,1130.0657L1013.762,1130.0658C1012.35156,1132.4597,1010.8585,1134.8446,1009.243,1137.1854L1009.243,1137.1854C1002.8165,1146.4966,994.546,1154.9618,986.46967,1163.2373C985.4785,1164.2529,983.8517,1164.2727,982.83606,1163.2815C981.82043,1162.2903,981.80066,1160.6636,982.7918,1159.648L982.7918,1159.648C990.93036,1151.3087,998.87915,1143.1542,1005.0135,1134.2662L1005.0135,1134.2662C1006.54517,1132.0469,1007.96893,1129.7742,1009.3343,1127.4569L1009.3343,1127.457C1011.39655,1123.9569,1013.292,1120.4133,1015.2158,1116.817L1015.2158,1116.817C1017.09955,1113.2957,1019.00946,1109.7247,1021.04755,1106.2656L1021.04755,1106.2657C1026.5275,1096.9648,1032.9589,1088.4191,1039.2823,1080.0132L1039.3152,1079.9703L1039.3192,1079.9652L1039.3192,1079.9652L1039.3232,1079.9601C1040.1436,1078.8689,1041.7544,1078.6411,1042.8884,1079.4943C1044.0225,1080.3474,1044.2502,1081.9583,1043.3971,1083.0923 Z"/>
</g>
<g style="fill:white; fill-opacity:1.0; stroke-linejoin: miter">
<path d="M533.27734,1083.0923L533.3102,1083.1351L533.3142,1083.1403L533.3142,1083.1403L533.31824,1083.1454L533.2854,1083.1025C539.6356,1091.5441,545.8916,1099.866,551.1992,1108.8744L551.1992,1108.8745C553.1771,1112.2316,555.032,1115.6984,556.92706,1119.2411L556.92706,1119.2411C558.842,1122.8208,560.7883,1126.4607,562.91235,1130.0657L562.91235,1130.0658C564.3228,1132.4597,565.81586,1134.8446,567.4314,1137.1854L567.4314,1137.1854C573.85785,1146.4966,582.12836,1154.9618,590.2047,1163.2373C591.19586,1164.2529,592.8227,1164.2727,593.8383,1163.2815C594.85394,1162.2903,594.8737,1160.6636,593.88257,1159.648L593.88257,1159.648C585.744,1151.3087,577.7952,1143.1542,571.6609,1134.2662L571.6609,1134.2662C570.1292,1132.0469,568.70544,1129.7742,567.3401,1127.4569L567.3401,1127.457C565.27783,1123.9569,563.3824,1120.4133,561.45856,1116.817L561.45856,1116.817C559.5748,1113.2957,557.6649,1109.7247,555.62683,1106.2656L555.62683,1106.2657C550.147,1096.9648,543.7156,1088.4191,537.3921,1080.0132L537.35925,1079.9703L537.3552,1079.9652L537.3552,1079.9652L537.3512,1079.9601C536.5309,1078.8689,534.92004,1078.6411,533.786,1079.4943C532.652,1080.3474,532.4242,1081.9583,533.27734,1083.0923 Z"/>
</g>
<g style="fill:white; fill-opacity:1.0; stroke-linejoin: miter">
<path d="M933.2884,1018.92206L933.2884,1018.92206C941.3387,1018.9241,949.6636,1018.9194,957.64246,1020.3275L957.64246,1020.3275C965.6287,1021.737,973.18945,1024.547,980.4972,1027.2557C981.8278,1027.749,982.50665,1029.2275,982.0134,1030.5581C981.5202,1031.8887,980.0417,1032.5676,978.71106,1032.0743L978.71106,1032.0743C971.3304,1029.3385,964.20074,1026.7035,956.74927,1025.3884L956.74927,1025.3884C949.289,1024.0718,941.4259,1024.0632,933.2872,1024.0612C931.86804,1024.0608,930.7179,1022.9101,930.71826,1021.49097C930.7186,1020.07184,931.86926,1018.9217,933.2884,1018.92206 Z"/>
</g>
<g style="fill:white; fill-opacity:1.0; stroke-linejoin: miter">
<path d="M643.38617,1018.92206L643.38617,1018.92206C635.3359,1018.9241,627.011,1018.9194,619.0321,1020.3275L619.0321,1020.3275C611.04584,1021.737,603.4851,1024.547,596.17737,1027.2557C594.84674,1027.749,594.1679,1029.2275,594.66113,1030.5581C595.15436,1031.8887,596.6329,1032.5676,597.9635,1032.0743L597.9635,1032.0743C605.3442,1029.3385,612.4738,1026.7035,619.9253,1025.3884L619.9253,1025.3884C627.38556,1024.0718,635.24866,1024.0632,643.3874,1024.0612C644.8065,1024.0608,645.95667,1022.9101,645.9563,1021.49097C645.95593,1020.07184,644.8053,1018.9217,643.38617,1018.92206 Z"/>
</g>
<g style="fill:white; fill-opacity:1.0; stroke-linejoin: miter">
<path d="M1011.96954,1039.1517L1011.96954,1039.1517C1015.5895,1040.5315,1019.26526,1041.932,1023.0483,1043.5991L1023.0483,1043.5991C1026.8223,1045.2622,1030.6737,1047.1788,1034.4587,1049.062C1035.7292,1049.6941,1036.2468,1051.2366,1035.6147,1052.5071C1034.9827,1053.7776,1033.4402,1054.2952,1032.1697,1053.6631L1032.1697,1053.6631C1028.3651,1051.7703,1024.619,1049.9072,1020.9759,1048.3018L1020.9759,1048.3018C1017.33136,1046.6957,1013.7748,1045.3396,1010.1391,1043.9537C1008.81305,1043.4482,1008.1479,1041.9636,1008.6533,1040.6376C1009.15875,1039.3115,1010.6435,1038.6462,1011.96954,1039.1517 Z"/>
</g>
<g style="fill:white; fill-opacity:1.0; stroke-linejoin: miter">
<path d="M564.70483,1039.1517L564.70483,1039.1517C561.0849,1040.5315,557.4091,1041.932,553.6261,1043.5991L553.6261,1043.5991C549.8522,1045.2622,546.00073,1047.1788,542.2157,1049.062C540.9452,1049.6941,540.4276,1051.2366,541.0597,1052.5071C541.6918,1053.7776,543.23425,1054.2952,544.50476,1053.6631L544.50476,1053.6631C548.3093,1051.7703,552.0554,1049.9072,555.6985,1048.3018L555.6985,1048.3018C559.343,1046.6957,562.8996,1045.3396,566.5353,1043.9537C567.8613,1043.4482,568.5265,1041.9636,568.02106,1040.6376C567.5156,1039.3115,566.0309,1038.6462,564.70483,1039.1517 Z"/>
</g>
<g style="fill:white; fill-opacity:1.0; stroke-linejoin: miter">
<path d="M741.07806,1181.5409L741.07806,1181.5409C726.41907,1198.2777,711.8428,1214.9219,697.18524,1235.0977L697.18524,1235.0977C682.515,1255.291,667.75024,1279.0393,652.9204,1302.8948C652.1712,1304.1,650.5868,1304.4697,649.3816,1303.7205C648.1764,1302.9712,647.8067,1301.3868,648.5559,1300.1816L648.5559,1300.1816C663.3621,1276.3643,678.22644,1252.4506,693.0275,1232.0771L693.0275,1232.0771C707.84015,1211.6879,722.566,1194.8771,737.2121,1178.1549C738.1471,1177.0874,739.7705,1176.9799,740.8381,1177.9149C741.90564,1178.85,742.01306,1180.4734,741.07806,1181.5409 Z"/>
</g>
<g style="fill:white; fill-opacity:1.0; stroke-linejoin: miter">
<path d="M835.59625,1181.5409L835.59625,1181.5409C850.25525,1198.2777,864.83154,1214.9219,879.4891,1235.0977L879.4891,1235.0977C894.1593,1255.291,908.9241,1279.0393,923.7539,1302.8948C924.5031,1304.1,926.0875,1304.4697,927.2927,1303.7205C928.4979,1302.9712,928.8676,1301.3868,928.1184,1300.1816L928.1184,1300.1816C913.3122,1276.3643,898.4479,1252.4506,883.6468,1232.0771L883.6468,1232.0771C868.83417,1211.6879,854.10834,1194.8771,839.4622,1178.1549C838.5272,1177.0874,836.9038,1176.9799,835.83624,1177.9149C834.7687,1178.85,834.66125,1180.4734,835.59625,1181.5409 Z"/>
</g>
<g style="fill:white; fill-opacity:1.0; stroke-linejoin: miter">
<path d="M694.6792,1206.5131L694.6315,1206.5515L694.62634,1206.5555L694.67413,1206.5171C684.8499,1214.6227,675.1399,1222.6372,665.7988,1232.1544L665.7988,1232.1544C656.4456,1241.6841,647.4311,1252.7511,638.32446,1263.9347C637.4284,1265.0352,635.80994,1265.2007,634.70953,1264.3047C633.60913,1263.4087,633.4434,1261.7903,634.3395,1260.6898L634.3395,1260.6898C643.4139,1249.5458,652.58026,1238.2855,662.1311,1228.5546L662.1311,1228.5546C671.6876,1218.8177,681.6071,1210.6356,691.4035,1202.553L691.4513,1202.5145L691.4564,1202.5105C692.50336,1201.6458,694.1228,1201.8011,695.02594,1202.8958C695.9291,1203.9904,695.77386,1205.6099,694.6792,1206.5131 Z"/>
</g>
<g style="fill:white; fill-opacity:1.0; stroke-linejoin: miter">
<path d="M881.9951,1206.5131L882.04285,1206.5515L882.048,1206.5555L882.0002,1206.5171C891.8244,1214.6227,901.5344,1222.6372,910.8755,1232.1544L910.8755,1232.1544C920.2287,1241.6841,929.2432,1252.7511,938.34985,1263.9347C939.2459,1265.0352,940.8644,1265.2007,941.9648,1264.3047C943.0652,1263.4087,943.2309,1261.7903,942.33484,1260.6898L942.33484,1260.6898C933.26044,1249.5458,924.09406,1238.2855,914.5432,1228.5546L914.5432,1228.5546C904.9867,1218.8177,895.0672,1210.6356,885.2708,1202.553L885.223,1202.5145L885.2179,1202.5105C884.17096,1201.6458,882.5515,1201.8011,881.6484,1202.8958C880.74524,1203.9904,880.90045,1205.6099,881.9951,1206.5131 Z"/>
</g>
<g style="fill:white; fill-opacity:1.0; stroke-linejoin: miter">
<path d="M746.18353,1196.1534L746.18353,1196.1534C735.3954,1212.9504,724.743,1229.5454,717.1269,1246.5513L717.1269,1246.5513C709.51764,1263.5419,704.9146,1280.9994,700.255,1298.6924C699.89355,1300.0647,698.4881,1300.8842,697.1158,1300.5227C695.74347,1300.1613,694.92395,1298.7559,695.2854,1297.3835L695.2854,1297.3835C699.9294,1279.7499,704.6279,1261.8868,712.4367,1244.4507L712.4367,1244.4507C720.2387,1227.0298,731.11536,1210.1047,741.85944,1193.3763C742.62634,1192.1823,744.21606,1191.836,745.4101,1192.6029C746.6041,1193.3698,746.95044,1194.9594,746.18353,1196.1534 Z"/>
</g>
<g style="fill:white; fill-opacity:1.0; stroke-linejoin: miter">
<path d="M830.4908,1196.1534L830.4908,1196.1534C841.27893,1212.9504,851.93134,1229.5454,859.5474,1246.5513L859.5474,1246.5513C867.1567,1263.5419,871.7597,1280.9994,876.4193,1298.6924C876.78076,1300.0647,878.1862,1300.8842,879.55853,1300.5227C880.93085,1300.1613,881.75037,1298.7559,881.3889,1297.3835L881.3889,1297.3835C876.74493,1279.7499,872.0464,1261.8868,864.2376,1244.4507L864.2376,1244.4507C856.4356,1227.0298,845.55896,1210.1047,834.8149,1193.3763C834.048,1192.1823,832.45825,1191.836,831.2642,1192.6029C830.0702,1193.3698,829.7239,1194.9594,830.4908,1196.1534 Z"/>
</g>
<g style="fill:white; fill-opacity:1.0; stroke-linejoin: miter">
<path d="M583.23145,1234.0735L583.23145,1234.0735C579.4199,1240.514,575.69464,1246.8143,572.19916,1255.2753L572.1991,1255.2754C568.6824,1263.7876,565.3862,1274.512,562.0419,1285.4014L562.04675,1285.3854L562.04565,1285.389C561.6378,1286.7483,560.2053,1287.5197,558.84607,1287.1118C557.4868,1286.704,556.71545,1285.2715,557.1233,1283.9122L557.1233,1283.9122L557.1244,1283.9086L557.1293,1283.8926C560.4515,1273.0752,563.8216,1262.0942,567.44946,1253.313L567.4494,1253.3131C571.09937,1244.4783,574.9968,1237.8975,578.80884,1231.456C579.5316,1230.2347,581.10754,1229.8307,582.3288,1230.5535C583.55005,1231.2762,583.9542,1232.8522,583.23145,1234.0735 Z"/>
</g>
<g style="fill:white; fill-opacity:1.0; stroke-linejoin: miter">
<path d="M993.443,1234.0735L993.443,1234.0735C997.2545,1240.514,1000.9798,1246.8143,1004.4753,1255.2753L1004.47534,1255.2754C1007.99207,1263.7876,1011.2882,1274.512,1014.63257,1285.4014L1014.6277,1285.3854L1014.6288,1285.389C1015.0366,1286.7483,1016.4691,1287.5197,1017.82837,1287.1118C1019.1876,1286.704,1019.959,1285.2715,1019.55115,1283.9122L1019.55115,1283.9122L1019.55005,1283.9086L1019.54517,1283.8926C1016.22296,1273.0752,1012.85284,1262.0942,1009.225,1253.313L1009.22504,1253.3131C1005.5751,1244.4783,1001.6776,1237.8975,997.8656,1231.456C997.1428,1230.2347,995.5669,1229.8307,994.34564,1230.5535C993.1244,1231.2762,992.7202,1232.8522,993.443,1234.0735 Z"/>
</g>
<g style="fill:white; fill-opacity:1.0; stroke-linejoin: miter">
<path d="M557.2706,1305.0785L557.27295,1305.0706L557.2722,1305.0731L557.2699,1305.081C556.0258,1309.3828,554.8118,1313.5854,553.89484,1317.9078L553.89484,1317.9078C552.97675,1322.2354,552.3494,1326.7148,551.70807,1331.3022C551.51154,1332.7076,550.2129,1333.6877,548.80743,1333.4912C547.402,1333.2947,546.42194,1331.996,546.61847,1330.5906L546.61847,1330.5906C547.2553,1326.0356,547.90576,1321.3754,548.8676,1316.8414L548.8676,1316.8414C549.8295,1312.3073,551.09717,1307.927,552.3331,1303.6533L552.3308,1303.6613L552.33154,1303.6587C552.7281,1302.2875,554.15283,1301.502,555.5161,1301.8962C556.8794,1302.2905,557.66486,1303.7152,557.2706,1305.0785 Z"/>
</g>
<g style="fill:white; fill-opacity:1.0; stroke-linejoin: miter">
<path d="M1019.4038,1305.0785L1019.4015,1305.0706L1019.4022,1305.0731L1019.40454,1305.081C1020.6486,1309.3828,1021.8626,1313.5854,1022.7796,1317.9078L1022.7796,1317.9078C1023.6977,1322.2354,1024.325,1326.7148,1024.9663,1331.3022C1025.1628,1332.7076,1026.4615,1333.6877,1027.867,1333.4912C1029.2725,1333.2947,1030.2524,1331.996,1030.0559,1330.5906L1030.0559,1330.5906C1029.4192,1326.0356,1028.7687,1321.3754,1027.8069,1316.8414L1027.8069,1316.8414C1026.845,1312.3073,1025.5773,1307.927,1024.3413,1303.6533L1024.3436,1303.6613L1024.3429,1303.6587C1023.94635,1302.2875,1022.5216,1301.502,1021.1583,1301.8962C1019.79504,1302.2905,1019.0096,1303.7152,1019.4038,1305.0785 Z"/>
</g>
<g style="fill:white; fill-opacity:1.0; stroke-linejoin: miter">
<path d="M551.6097,1356.6697L551.61,1356.6268L551.61,1356.632L551.61,1356.632L551.61,1356.6371L551.6097,1356.6799C551.4245,1367.7914,551.2407,1378.8365,551.4739,1388.9841L551.4739,1388.9841C551.7069,1399.1224,552.35736,1408.39,553.01215,1417.7119C553.1116,1419.1276,552.0446,1420.3557,550.62897,1420.4552C549.2133,1420.5547,547.9851,1419.4877,547.8857,1418.072L547.8857,1418.072C547.23175,1408.7631,546.5724,1399.378,546.3362,1389.1023L546.3362,1389.1023C546.1003,1378.8367,546.2865,1367.6796,546.47125,1356.5942L546.47095,1356.6371L546.47095,1356.632L546.47095,1356.632L546.47095,1356.6268C546.4949,1355.165,547.6643,1354.0339,549.08325,1354.0576C550.5022,1354.0813,551.6333,1355.2507,551.6097,1356.6697 Z"/>
</g>
<g style="fill:white; fill-opacity:1.0; stroke-linejoin: miter">
<path d="M1025.065,1356.6697L1025.0646,1356.6268L1025.0646,1356.632L1025.0646,1356.632L1025.0646,1356.6371L1025.065,1356.6799C1025.25,1367.7914,1025.4338,1378.8365,1025.2007,1388.9841L1025.2007,1388.9841C1024.9677,1399.1224,1024.3171,1408.39,1023.6624,1417.7119C1023.563,1419.1276,1024.6299,1420.3557,1026.0457,1420.4552C1027.4612,1420.5547,1028.6895,1419.4877,1028.7888,1418.072L1028.7888,1418.072C1029.4429,1408.7631,1030.1022,1399.378,1030.3384,1389.1023L1030.3384,1389.1023C1030.5742,1378.8367,1030.3881,1367.6796,1030.2034,1356.5942L1030.2036,1356.6371L1030.2036,1356.632L1030.2036,1356.632L1030.2036,1356.6268C1030.1797,1355.165,1029.0103,1354.0339,1027.5913,1354.0576C1026.1724,1354.0813,1025.0413,1355.2507,1025.065,1356.6697 Z"/>
</g>
<g style="fill:white; fill-opacity:1.0; stroke-linejoin: miter">
<path d="M600.18567,1402.1415L600.18567,1402.1415C606.67883,1400.7383,613.13806,1399.3424,622.38025,1397.0776L622.38025,1397.0776C631.66394,1394.8027,643.5081,1391.7076,653.26276,1387.3276L653.26276,1387.3276C662.97186,1382.968,670.69073,1377.2999,678.6392,1371.4534C679.7824,1370.6125,681.3908,1370.8575,682.2317,1372.0007C683.0726,1373.1439,682.82745,1374.7524,681.68427,1375.5933L681.68427,1375.5933C673.7769,1381.4095,665.64386,1387.4017,655.36786,1392.0159L655.36786,1392.0159C645.13763,1396.6095,632.8711,1399.7981,623.6034,1402.0691L623.6034,1402.0691C614.29016,1404.3512,607.7712,1405.76,601.27124,1407.1647C599.88416,1407.4645,598.51666,1406.5829,598.2169,1405.1958C597.9172,1403.8087,598.7986,1402.4413,600.18567,1402.1415 Z"/>
</g>
<g style="fill:white; fill-opacity:1.0; stroke-linejoin: miter">
<path d="M976.4889,1402.1415L976.4889,1402.1415C969.9957,1400.7383,963.5365,1399.3424,954.2943,1397.0776L954.2943,1397.0776C945.0106,1394.8027,933.16644,1391.7076,923.4118,1387.3276L923.4118,1387.3276C913.7027,1382.968,905.9838,1377.2999,898.03534,1371.4534C896.89215,1370.6125,895.28375,1370.8575,894.4429,1372.0007C893.602,1373.1439,893.8471,1374.7524,894.9903,1375.5933L894.9903,1375.5933C902.89764,1381.4095,911.0307,1387.4017,921.3067,1392.0159L921.3067,1392.0159C931.5369,1396.6095,943.80347,1399.7981,953.07117,1402.0691L953.07117,1402.0691C962.3844,1404.3512,968.9034,1405.76,975.4033,1407.1647C976.7904,1407.4645,978.1579,1406.5829,978.45764,1405.1958C978.7574,1403.8087,977.876,1402.4413,976.4889,1402.1415 Z"/>
</g>
<g style="fill:white; fill-opacity:1.0; stroke-linejoin: miter">
<path d="M790.46606,1301.8354L790.46606,1301.8354C786.29694,1311.9246,782.2161,1321.8119,779.7252,1331.376L779.7252,1331.376C777.24005,1340.9181,776.32117,1350.2037,775.38544,1359.71C775.2464,1361.1223,773.98883,1362.1544,772.57654,1362.0154C771.16425,1361.8763,770.132,1360.6189,770.27106,1359.2065L770.27106,1359.2065C771.20184,1349.7506,772.1498,1340.0725,774.7521,1330.0808L774.7521,1330.0808C777.34845,1320.1117,781.5775,1309.8892,785.71655,1299.8728C786.25854,1298.5613,787.7611,1297.9374,789.07263,1298.4794C790.38416,1299.0214,791.00806,1300.5239,790.46606,1301.8354 Z"/>
</g>
<g style="fill:white; fill-opacity:1.0; stroke-linejoin: miter">
<path d="M786.2084,1301.8354L786.2084,1301.8354C790.3775,1311.9246,794.4583,1321.8119,796.9492,1331.376L796.9492,1331.376C799.4344,1340.9181,800.3533,1350.2037,801.289,1359.71C801.42804,1361.1223,802.6856,1362.1544,804.0979,1362.0154C805.5102,1361.8763,806.5424,1360.6189,806.4034,1359.2065L806.4034,1359.2065C805.4726,1349.7506,804.52466,1340.0725,801.92236,1330.0808L801.92236,1330.0808C799.326,1320.1117,795.0969,1309.8892,790.9579,1299.8728C790.4159,1298.5613,788.9133,1297.9374,787.6018,1298.4794C786.2903,1299.0214,785.6664,1300.5239,786.2084,1301.8354 Z"/>
</g>
<g style="fill:white; fill-opacity:1.0; stroke-linejoin: miter">
<path d="M789.22675,1301.478L789.22675,1301.478C783.41016,1306.5825,777.8132,1311.504,772.36975,1319.5905L772.36975,1319.5905C766.8592,1327.7765,761.4805,1339.2341,755.9842,1350.9586C755.38184,1352.2435,753.85187,1352.797,752.5669,1352.1946C751.2819,1351.5922,750.72864,1350.0621,751.331,1348.7772L751.331,1348.7772C756.76886,1337.1775,762.32654,1325.307,768.10657,1316.7206L768.10657,1316.7206C773.9554,1308.032,780.0048,1302.7336,785.837,1297.6155C786.9036,1296.6794,788.52716,1296.7853,789.4632,1297.8519C790.39923,1298.9186,790.2934,1300.542,789.22675,1301.478 Z"/>
</g>
<g style="fill:white; fill-opacity:1.0; stroke-linejoin: miter">
<path d="M787.4477,1301.478L787.4477,1301.478C793.2643,1306.5825,798.86127,1311.504,804.3047,1319.5905L804.3047,1319.5905C809.81525,1327.7765,815.1939,1339.2341,820.69025,1350.9586C821.2926,1352.2435,822.8226,1352.797,824.10754,1352.1946C825.3925,1351.5922,825.9458,1350.0621,825.34344,1348.7772L825.34344,1348.7772C819.9056,1337.1775,814.3479,1325.307,808.5679,1316.7206L808.5679,1316.7206C802.71906,1308.032,796.6696,1302.7336,790.83746,1297.6155C789.7708,1296.6794,788.1473,1296.7853,787.21124,1297.8519C786.2752,1298.9186,786.38104,1300.542,787.4477,1301.478 Z"/>
</g>
<g style="fill:white; fill-opacity:1.0; stroke-linejoin: miter">
<path d="M743.3771,1332.7899L743.36707,1332.8024L743.37054,1332.798L743.37054,1332.798L743.374,1332.7936L743.38403,1332.781C748.2999,1326.6506,753.3386,1320.3611,759.18713,1314.8129L759.18713,1314.8129C765.03485,1309.2654,771.6449,1304.5048,778.08655,1299.861L778.0597,1299.8805L778.06464,1299.8768C779.205,1299.0321,780.8142,1299.2717,781.65894,1300.4121C782.50366,1301.5525,782.264,1303.1617,781.1236,1304.0065L781.1236,1304.0065L781.11865,1304.0101L781.0918,1304.0297C774.6012,1308.7089,768.27673,1313.2734,762.724,1318.5411L762.724,1318.5411C757.1714,1323.8086,752.347,1329.8186,747.3933,1335.9961L747.4033,1335.9835L747.39984,1335.9879L747.39984,1335.9879L747.39636,1335.9923C746.49854,1337.1119,744.88135,1337.2898,743.77423,1336.402C742.6671,1335.5142,742.48926,1333.8971,743.3771,1332.7899 Z"/>
</g>
<g style="fill:white; fill-opacity:1.0; stroke-linejoin: miter">
<path d="M833.29736,1332.7899L833.3074,1332.8024L833.3039,1332.798L833.3039,1332.798L833.3004,1332.7936L833.2904,1332.781C828.3745,1326.6506,823.3358,1320.3611,817.4873,1314.8129L817.4873,1314.8129C811.6396,1309.2654,805.02954,1304.5048,798.5879,1299.861L798.61475,1299.8805L798.6098,1299.8768C797.4694,1299.0321,795.8602,1299.2717,795.0155,1300.4121C794.1708,1301.5525,794.41046,1303.1617,795.55084,1304.0065L795.55084,1304.0065L795.5558,1304.0101L795.58264,1304.0297C802.07324,1308.7089,808.3977,1313.2734,813.95044,1318.5411L813.95044,1318.5411C819.50305,1323.8086,824.32745,1329.8186,829.2811,1335.9961L829.2711,1335.9835L829.2746,1335.9879L829.2746,1335.9879L829.2781,1335.9923C830.1759,1337.1119,831.7931,1337.2898,832.9002,1336.402C834.0073,1335.5142,834.1852,1333.8971,833.29736,1332.7899 Z"/>
</g>
<g style="fill:white; fill-opacity:1.0; stroke-linejoin: miter">
<path d="M654.93396,1117.1921L652.3927,1117.4961L649.8514,1117.8002L649.8901,1118.141L649.96497,1118.4663L650.0798,1118.7745Q650.35516,1119.3798,650.87915,1119.7773L651.14954,1119.956L651.4424,1120.1001L651.7547,1120.2065L652.0837,1120.2726L652.42633,1120.2952L652.775,1120.2717Q653.82855,1120.1047,654.46045,1119.2958L654.645,1119.0225L654.79395,1118.7258L654.90405,1118.4087Q655.0727,1117.6508,654.93396,1117.1921 Z"/>
</g>
<g style="fill:white; fill-opacity:1.0; stroke-linejoin: miter">
<path d="M921.7338,1117.1925L921.72516,1117.2356Q921.6833,1117.4288,921.6785,1117.7256Q921.6798,1118.0815,921.77026,1118.4087L921.88043,1118.7258L922.0293,1119.0223L922.2141,1119.2959L922.4311,1119.5426L922.67786,1119.7598L922.9512,1119.9443L923.2479,1120.0933L923.56506,1120.2034L923.8994,1120.2717L924.24805,1120.2952L924.5908,1120.2726L924.91956,1120.2064L925.23193,1120.1001L925.52466,1119.9559L925.7952,1119.7775Q926.5958,1119.1664,926.7843,1118.1404L926.81647,1117.8004Q926.8211,1117.8008,926.82574,1117.8014L921.7338,1117.1925 Z"/>
</g>
<g style="fill:white; fill-opacity:1.0; stroke-linejoin: miter">
<path d="M787.5806,1111.6884C781.79346,1111.6884,774.89594,1113.3984,769.8879,1116.1986C765.3892,1118.7137,762.2434,1122.1846,758.886,1126.3103C758.8238,1126.3867,758.8111,1126.4921,758.8534,1126.581C758.8693,1126.6146,758.892,1126.6436,758.9194,1126.6666L758.9118,1126.6676C764.3476,1135.5409,769.8956,1144.7941,773.49695,1154.0494C775.7065,1159.728,777.1679,1165.3651,778.2915,1170.881C778.31586,1171.0009,778.4214,1171.0853,778.5413,1171.0853C778.54987,1171.0853,778.55853,1171.0848,778.5672,1171.084C778.64,1171.0767,778.7031,1171.0392,778.7446,1170.9847L778.7439,1170.9857C780.435,1168.788,782.27106,1167.0006,784.23553,1166.0704C784.2356,1166.0704,784.2357,1166.0703,784.2358,1166.0703L784.23553,1166.0713C785.1692,1165.6283,786.23944,1165.304,787.4204,1165.2335L787.42163,1165.2334L787.42126,1165.2344C787.5797,1165.224,787.74133,1165.2192,787.90027,1165.2192C789.1614,1165.2192,790.3127,1165.5125,791.3217,1165.948L791.3243,1165.949C793.4268,1166.8542,795.39606,1168.6982,797.19904,1170.942C797.2484,1171.0035,797.32214,1171.0374,797.39795,1171.0374C797.42633,1171.0374,797.455,1171.0326,797.4828,1171.0228C797.5849,1170.9868,797.65326,1170.8904,797.65326,1170.7821L797.65326,1170.7811L797.6556,1170.7821C798.74603,1162.7052,800.1958,1154.8616,802.58215,1148.212C805.98816,1138.7214,811.2376,1131.7888,816.3155,1125.5793L816.3073,1125.5803C816.35266,1125.5499,816.3883,1125.5062,816.40765,1125.4536C816.4408,1125.3635,816.42053,1125.2625,816.35535,1125.192C815.48175,1124.2488,814.51935,1123.325,813.05597,1122.2167C810.8461,1120.543,807.5246,1118.4668,803.9055,1116.2216L803.8975,1116.2225C803.87463,1116.1967,803.8466,1116.1761,803.8144,1116.1616C798.60077,1113.8145,794.16565,1111.9023,788.5583,1111.7062L788.5504,1111.7072C788.54205,1111.7051,788.53357,1111.7043,788.5251,1111.7041C788.22107,1111.6938,787.8957,1111.6884,787.5806,1111.6884 Z"/>
</g>
<g style="fill:white; fill-opacity:1.0; stroke-linejoin: miter">
<path d="M747.2562,1191.581C747.1205,1191.581,747.0085,1191.6873,747.00134,1191.8229C746.35724,1204.0708,746.1847,1214.9003,747.6293,1221.9565L747.6293,1221.9567C748.6705,1227.0425,750.56793,1230.0907,752.5857,1233.3049C752.59644,1233.322,752.609,1233.3375,752.62305,1233.3513L752.61554,1233.3523C752.66394,1233.4285,752.62463,1233.3658,752.7006,1233.4867L752.81213,1233.6642L752.8121,1233.6652C754.2703,1235.9867,755.94775,1238.7089,756.8829,1242.1963C757.8012,1245.6207,757.9514,1249.6296,758.0859,1253.2458L758.0976,1253.561L758.0976,1253.5613C758.2689,1258.1438,758.45056,1262.5123,759.54865,1266.6072L759.54865,1266.607C759.69574,1267.1558,759.86,1267.7,760.04004,1268.229C762.75525,1276.207,769.8101,1283.4407,777.9732,1291.6588C778.52,1292.2094,778.8951,1292.8652,779.099,1293.5609C779.1312,1293.6709,779.232,1293.7444,779.3437,1293.7444C779.3558,1293.7444,779.3679,1293.7435,779.3802,1293.7418C779.39606,1293.7395,779.4114,1293.7358,779.42615,1293.7308L779.42303,1293.7318C780.9548,1293.2317,782.61633,1292.6934,784.1395,1292.2L784.617,1292.0453C785.0793,1291.8955,785.5455,1291.8248,786.0058,1291.8248C786.78723,1291.8248,787.54596,1292.0299,788.212,1292.405C788.25085,1292.427,788.294,1292.4379,788.33716,1292.4379C788.3811,1292.4379,788.4251,1292.4265,788.46454,1292.4038L788.46277,1292.4048C788.46857,1292.4005,788.4744,1292.3973,788.4802,1292.394L788.4788,1292.395L788.4794,1292.3937L788.4809,1292.3947C789.142,1292.0262,789.89526,1291.8248,790.66864,1291.8248C791.1278,1291.8248,791.5961,1291.8959,792.05743,1292.0453L792.5621,1292.2087L793.06775,1292.3726C794.5629,1292.857,795.7503,1293.242,797.25134,1293.7318C797.27716,1293.7402,797.30383,1293.7444,797.3303,1293.7444C797.3836,1293.7444,797.4362,1293.7277,797.4804,1293.6957C797.5269,1293.662,797.5601,1293.614,797.5757,1293.56L797.5754,1293.561C797.7793,1292.8652,798.15454,1292.2092,798.70123,1291.6588C806.8643,1283.4407,813.9192,1276.207,816.6344,1268.229C816.81445,1267.7,816.9787,1267.1558,817.1258,1266.607L817.1258,1266.6072C818.2239,1262.5123,818.4055,1258.1438,818.57684,1253.5613L818.5769,1253.559L818.57733,1253.5477L818.5774,1253.5472L818.58875,1253.2437L818.60016,1252.936C818.73224,1249.4008,818.8994,1245.5232,819.79156,1242.1963C820.75116,1238.6177,822.4921,1235.8453,823.9761,1233.4843L823.97614,1233.4841L824.08875,1233.3049C824.0889,1233.3046,824.0892,1233.3043,824.08936,1233.304L824.0887,1233.3049C826.10657,1230.0905,828.0039,1227.0427,829.04517,1221.9567L829.05035,1221.9055L829.05035,1221.9054L829.0556,1221.9064C830.48883,1214.848,830.3157,1204.0426,829.6732,1191.8256C829.6667,1191.7014,829.57166,1191.6,829.4482,1191.5854L829.4399,1191.5845C829.4299,1191.5833,829.4199,1191.5828,829.41003,1191.5828C829.3037,1191.5828,829.207,1191.6492,829.17004,1191.7511C827.6878,1195.8424,825.8869,1199.7688,823.59174,1203.3451C819.1892,1210.2051,813.0828,1215.6074,808.26855,1219.8651L808.0885,1220.0243C806.2054,1221.69,804.5526,1223.1536,803.16095,1224.5233C798.2851,1229.3221,796.4241,1233.1527,794.34827,1237.4388C793.57086,1239.0442,791.9648,1239.9802,790.292,1239.9802C789.6724,1239.9802,789.04553,1239.8523,788.4458,1239.5828L788.3724,1239.5623L788.36444,1239.5613C788.35406,1239.5599,788.3437,1239.5593,788.33325,1239.5593C788.2972,1239.5593,788.2614,1239.567,788.22833,1239.5819C787.6289,1239.8523,787.002,1239.9802,786.38245,1239.9802C784.70966,1239.9802,783.1036,1239.0442,782.3262,1237.4388C780.25037,1233.1527,778.38934,1229.3221,773.5135,1224.5233C772.1204,1223.1522,770.47064,1221.6913,768.58594,1220.0243L768.4069,1219.866L768.40686,1219.8658C768.3855,1219.847,768.23944,1219.7178,768.2178,1219.6986L768.2177,1219.6996C763.4341,1215.4674,757.4269,1210.114,753.0827,1203.3451C750.7873,1199.7683,748.986,1195.8408,747.50366,1191.7494C747.4671,1191.6483,747.3711,1191.581,747.2637,1191.581 Z"/>
</g>
</g>
</svg>